<svg xmlns="http://www.w3.org/2000/svg">
  <symbol id="home" viewBox="0 0 16 16">
    <title>Home</title>
    <path d="M15 7h-2v7h-2v-7h-2v7h-2v-7h-2v7h-2v-7h-2v8h-1v1h16v-1h-1v-8z"></path>
    <path d="M8.5 0h-1l-7.5 5v1h16v-1l-7.5-5zM8 4c-0.552 0-1-0.448-1-1s0.448-1 1-1 1 0.448 1 1-0.448 1-1 1z"></path>
  </symbol>
  <symbol id="cv" viewBox="0 0 16 16">
    <title>CV</title>
    <path d="M13.5 0h-12c-0.825 0-1.5 0.675-1.5 1.5v13c0 0.825 0.675 1.5 1.5 1.5h12c0.825 0 1.5-0.675 1.5-1.5v-13c0-0.825-0.675-1.5-1.5-1.5zM13 14h-11v-12h11v12zM4 9h7v1h-7zM4 11h7v1h-7zM5 4.5c0-0.828 0.672-1.5 1.5-1.5s1.5 0.672 1.5 1.5c0 0.828-0.672 1.5-1.5 1.5s-1.5-0.672-1.5-1.5zM7.5 6h-2c-0.825 0-1.5 0.45-1.5 1v1h5v-1c0-0.55-0.675-1-1.5-1z"></path>
  </symbol>
  <symbol id="testimonials" viewBox="0 0 18 16">
    <title>Testimonials</title>
    <path d="M17 14.081c0 0.711 0.407 1.327 1 1.628v0.249c-0.166 0.023-0.335 0.035-0.508 0.035-1.063 0-2.021-0.446-2.699-1.16-0.41 0.109-0.844 0.168-1.293 0.168-2.485 0-4.5-1.791-4.5-4s2.015-4 4.5-4c2.485 0 4.5 1.791 4.5 4 0 0.865-0.309 1.665-0.834 2.32-0.107 0.232-0.166 0.489-0.166 0.761zM3.604 3.456c-1.035 0.841-1.604 1.922-1.604 3.044 0 0.63 0.175 1.24 0.52 1.815 0.356 0.592 0.89 1.134 1.547 1.566 0.474 0.312 0.793 0.812 0.878 1.373 0.028 0.187 0.046 0.376 0.053 0.564 0.117-0.097 0.23-0.201 0.342-0.312 0.377-0.377 0.887-0.586 1.414-0.586 0.084 0 0.168 0.005 0.252 0.016 0.327 0.042 0.662 0.063 0.994 0.063v2c-0.424-0-0.84-0.027-1.246-0.079-1.718 1.718-3.77 2.027-5.753 2.072v-0.421c1.071-0.525 2-1.48 2-2.572 0-0.152-0.012-0.302-0.034-0.448-1.809-1.192-2.966-3.012-2.966-5.052 0-3.59 3.582-6.5 8-6.5 4.351 0 7.89 2.822 7.997 6.336-0.642-0.286-1.341-0.46-2.067-0.509-0.18-0.876-0.709-1.7-1.535-2.371-0.552-0.448-1.202-0.803-1.932-1.054-0.777-0.267-1.606-0.402-2.464-0.402s-1.687 0.135-2.464 0.402c-0.73 0.251-1.38 0.605-1.932 1.054z"></path>
  </symbol>
  <symbol id="photography" viewBox="0 0 16 16">
    <title>Photography</title>
    <path d="M4.75 9.5c0 1.795 1.455 3.25 3.25 3.25s3.25-1.455 3.25-3.25-1.455-3.25-3.25-3.25-3.25 1.455-3.25 3.25zM15 4h-3.5c-0.25-1-0.5-2-1.5-2h-4c-1 0-1.25 1-1.5 2h-3.5c-0.55 0-1 0.45-1 1v9c0 0.55 0.45 1 1 1h14c0.55 0 1-0.45 1-1v-9c0-0.55-0.45-1-1-1zM8 13.938c-2.451 0-4.438-1.987-4.438-4.438s1.987-4.438 4.438-4.438c2.451 0 4.438 1.987 4.438 4.438s-1.987 4.438-4.438 4.438zM15 7h-2v-1h2v1z"></path>
  </symbol>
  <symbol id="3d" viewBox="0 0 16 16">
    <title>3D modeling</title>
    <path class="path1" d="M7.625 0h-0.251l-7.375 3.951v7.129l7.348 4.921h0.304l7.348-4.921v-7.129l-7.375-3.951zM6.345 14.125l-0.373-0.25h1.028v0.25h-0.655zM7 14.375v0.188l-0.281-0.188h0.281zM5.599 13.625l-0.373-0.25h1.775v0.25h-1.401zM4.852 13.125l-0.373-0.25h2.521v0.25h-2.148zM4.105 12.625l-0.373-0.25h3.268v0.25h-2.895zM3.359 12.125l-0.373-0.25h4.015v0.25h-3.641zM2.612 11.625l-0.373-0.25h4.761v0.25h-4.388zM1.865 11.125l-0.373-0.25h5.508v0.25h-5.135zM1.119 10.625l-0.119-0.079v-0.171h6v0.25h-5.881zM1 10.125v-0.25h6v0.25h-6zM1 9.625v-0.25h6v0.25h-6zM1 9.125v-0.25h6v0.25h-6zM1 8.625v-0.25h6v0.25h-6zM1 8.125v-0.25h5.208l0.467 0.25h-5.675zM1 7.625v-0.25h4.274l0.467 0.25h-4.741zM1 7.125v-0.25h3.341l0.467 0.25h-3.808zM1 6.625v-0.25h2.408l0.467 0.25h-2.874zM1 6.125v-0.25h1.474l0.467 0.25h-1.941zM1 5.625v-0.25h0.541l0.467 0.25h-1.008zM1 5.125v-0.040l0.074 0.040h-0.074zM7.5 7.433l-5.941-3.183 5.941-3.183 5.941 3.183-5.941 3.183z"></path>
  </symbol>
  <symbol id="fails" viewBox="0 0 16 16">
    <title>Fails</title>
    <path d="M1.5 7c-1.141 0-0.5-3 0.5-3-0.5 0 0-2.5 1-2.5 0-1 1-1.5 2-1.5 4.224 0 2.739 1.057 7 1.5v8c-3.764 1.129-7.5 3.96-7.5 6.5-0.828 0-3-1 0-6 0 0-2.5 0-3 0-1.5 0-1-3 0-3zM13 9.5v-8h-1v-0.5h2c0.55 0 1 0.675 1 1.5v6c0 0.825-0.45 1.5-1 1.5h-2v-0.5h1z"></path>
  </symbol>
</svg>
